:SAMPLES-PER-SECOND 30
:FULLY-SPECIFIED
:DEGREES
793
root  -38.4171 33.4566 16.9275 -172.966 49.5266 175.759
RightUpLeg  0.981298 -7.37104 -6.12044
RightLeg  23.9739 -6.87764 -2.53815
RightFoot  -5.70382 0.0171304 0.934581
RightToes  -42.132 -0.235735 -0.326846
Spine  -1.76335 1.98016 -1.65018
Spine1  -3.42194 3.98681 -2.74981
HEad  -69.4751 0.0195978 3.22052
LeftShoulder1  -1.94126e-019 -3.10601e-018 -2.51263e-017
LeftArm  -25.3937 13.3559 -55.1221
LeftForeArm  59.5444 -76.206 -42.253
LeftHand  -0.469153 0.492536 11.1537
RightShoulder  -4.96962e-017 0 -2.36833e-017
RightArm  -38.5915 6.1217 38.0553
RightForeArm  61.5626 69.1104 22.6161
RightHand  -0.393322 -1.32049 -11.1248
LeftUpLeg  -32.9703 -4.52116 -1.89846
LeftLeg  21.0434 16.993 5.21782
LeftFoot  12.869 -0.460511 4.24321
LeftToes  -15.333 1.87998e-006 4.79886e-008
794
root  -37.6034 33.5361 15.6488 -174.607 49.2996 174.156
RightUpLeg  -2.54726 -9.10715 -8.35863
RightLeg  34.7389 -6.89053 -4.14582
RightFoot  1.60139 0.00815978 -0.0378562
RightToes  -60.2158 -0.396584 -0.39877
Spine  -1.81099 1.91172 -2.13251
Spine1  -3.538 3.81162 -3.67862
HEad  -69.0847 -0.200329 3.57551
LeftShoulder1  -1.94126e-019 -3.10601e-018 -2.51263e-017
LeftArm  -27.7143 13.9733 -55.2446
LeftForeArm  64.6369 -77.6564 -49.7344
LeftHand  -0.569814 1.05209 15.2343
RightShoulder  -4.96962e-017 0 -2.36833e-017
RightArm  -41.9516 4.53477 39.852
RightForeArm  72.4564 76.026 37.1113
RightHand  -0.348893 -2.66437 -14.5374
LeftUpLeg  -32.1292 -4.31362 -4.13434
LeftLeg  25.0479 16.2974 6.26149
LeftFoot  8.83967 -0.213041 2.91728
LeftToes  -10.0959 1.87998e-006 4.79886e-008
795
root  -36.7607 33.6757 14.5078 -175.361 49.6194 174.2
RightUpLeg  -6.93841 -11.6023 -9.18061
RightLeg  45.9373 -7.93923 -7.18446
RightFoot  11.229 0.247676 -1.9254
RightToes  -58.2387 -0.377994 -0.393426
Spine  -1.63189 2.04623 -2.20646
Spine1  -3.21587 4.10631 -3.8362
HEad  -69.3046 -0.166064 3.74491
LeftShoulder1  -1.94126e-019 -3.10601e-018 -2.51263e-017
LeftArm  -28.2064 14.9585 -56.3257
LeftForeArm  70.8617 -78.6333 -56.2496
LeftHand  -0.646183 1.54777 19.4442
RightShoulder  -4.96962e-017 0 -2.36833e-017
RightArm  -43.9494 2.13809 42.8563
RightForeArm  95.7276 80.3728 64.7108
RightHand  -0.19017 -4.24181 -18.2049
LeftUpLeg  -29.4754 -1.10711 -5.62965
LeftLeg  25.8566 13.8503 5.56894
LeftFoot  4.91359 -0.0557371 1.46058
LeftToes  -5.09108 1.87998e-006 4.79886e-008
796
root  -35.9439 33.839 13.4908 -175.535 50.5593 174.9
RightUpLeg  -12.093 -14.1869 -8.76738
RightLeg  55.8396 -8.81316 -11.2156
RightFoot  15.3513 0.57548 -3.65264
RightToes  -26.0346 -0.11759 -0.223483
Spine  -1.27197 2.08093 -2.05613
Spine1  -2.52188 4.20746 -3.53087
HEad  -70.2897 0.628886 3.58003
LeftShoulder1  -1.94126e-019 -3.10601e-018 -2.51263e-017
LeftArm  -28.4068 16.6385 -58.0298
LeftForeArm  75.1218 -79.0677 -59.2903
LeftHand  -0.651558 1.93333 21.7481
RightShoulder  -4.96962e-017 0 -2.36833e-017
RightArm  -44.0905 0.269496 47.1914
RightForeArm  126.925 81.0877 98.5151
RightHand  -0.0417443 -5.21279 -21.7867
LeftUpLeg  -26.666 1.21782 -5.8975
LeftLeg  25.9459 12.762 5.16384
LeftFoot  2.02535 -0.00863108 0.649848
LeftToes  -3.51895 1.87998e-006 4.79886e-008
797
root  -35.157 34.0322 12.5666 -175.02 51.3212 175.783
RightUpLeg  -17.0065 -16.0752 -7.38891
RightLeg  61.5113 -7.39549 -11.6522
RightFoot  11.156 0.305048 -2.51185
RightToes  -24.7082 -0.10923 -0.213557
Spine  -1.0526 1.88069 -1.80786
Spine1  -2.07926 3.81565 -3.00922
HEad  -70.8911 1.47395 3.21129
LeftShoulder1  -1.94126e-019 -3.10601e-018 -2.51263e-017
LeftArm  -28.3318 18.6032 -60.3824
LeftForeArm  68.9868 -78.1796 -52.1217
LeftHand  -0.717908 1.61407 21.9553
RightShoulder  -4.96962e-017 0 -2.36833e-017
RightArm  -42.0052 -2.19427 52.4397
RightForeArm  147.926 79.9433 119.286
RightHand  -0.0307159 -5.27287 -24.8812
LeftUpLeg  -24.1873 1.78504 -5.60911
LeftLeg  25.3753 13.0134 5.11524
LeftFoot  0.354287 -0.000248036 0.24186
LeftToes  -3.11668 1.87998e-006 4.79886e-008
798
root  -34.3647 34.262 11.7102 -173.908 51.72 177.181
RightUpLeg  -21.5534 -18.0005 -4.95774
RightLeg  63.2036 -5.50162 -9.35498
RightFoot  10.0762 0.204373 -1.72449
RightToes  -25.575 -0.114667 -0.220066
Spine  -0.946475 1.6724 -1.41044
Spine1  -1.85502 3.40732 -2.18988
HEad  -70.9916 1.77678 2.91289
LeftShoulder1  -1.94126e-019 -3.10601e-018 -2.51263e-017
LeftArm  -27.8532 19.8777 -63.8028
LeftForeArm  55.2018 -74.7184 -36.8662
LeftHand  -0.782355 0.945267 20.3816
RightShoulder  -4.96962e-017 0 -2.36833e-017
RightArm  -38.347 -6.26865 57.596
RightForeArm  154.837 79.5019 124.273
RightHand  -0.12879 -4.83975 -26.0244
LeftUpLeg  -21.4938 0.806529 -4.8155
LeftLeg  24.0125 14.4144 5.26635
LeftFoot  -0.787565 -0.00153812 -0.0622731
LeftToes  -2.28471 1.87998e-006 4.79886e-008
799
root  -33.5449 34.477 10.8895 -173.02 52.2099 178.338
RightUpLeg  -25.5788 -19.3496 -2.11612
RightLeg  61.9692 -4.58954 -7.47583
RightFoot  11.0048 0.201105 -1.50493
RightToes  -28.4016 -0.13307 -0.240704
Spine  -0.844 1.52569 -1.13571
Spine1  -1.64756 3.11379 -1.61019
HEad  -70.7919 1.86165 3.07742
LeftShoulder1  -1.94126e-019 -3.10601e-018 -2.51263e-017
LeftArm  -26.7624 20.3043 -67.2334
LeftForeArm  42.1284 -67.7132 -23.4934
LeftHand  -0.74471 0.473933 17.5982
RightShoulder  -4.96962e-017 0 -2.36833e-017
RightArm  -33.7432 -10.9937 62.666
RightForeArm  144.007 80.7111 111.697
RightHand  -0.223409 -4.34963 -24.1306
LeftUpLeg  -18.2341 0.3597 -4.27874
LeftLeg  21.4812 15.7019 4.96279
LeftFoot  -1.51976 -0.00604922 -0.294545
LeftToes  -1.84092 1.87998e-006 4.79886e-008
800
root  -32.7157 34.641 10.0926 -172.244 52.7617 179.249
RightUpLeg  -28.927 -20.0298 0.709171
RightLeg  57.9885 -3.92742 -5.52348
RightFoot  9.59378 0.128439 -0.959814
RightToes  -29.1233 -0.137931 -0.245827
Spine  -0.737681 1.18049 -0.902727
Spine1  -1.43871 2.41711 -1.10743
HEad  -70.4709 2.53176 3.2599
LeftShoulder1  -1.94126e-019 -3.10601e-018 -2.51263e-017
LeftArm  -25.9577 20.514 -70.4607
LeftForeArm  33.2392 -57.6051 -14.8753
LeftHand  -0.570464 0.306485 13.0773
RightShoulder  -4.96962e-017 0 -2.36833e-017
RightArm  -28.6542 -14.8178 67.2241
RightForeArm  102.921 80.8044 68.5315
RightHand  -0.462679 -2.6296 -19.1653
LeftUpLeg  -14.9161 1.32869 -3.94455
LeftLeg  18.4394 15.5953 4.04824
LeftFoot  -2.06378 -0.010839 -0.440223
LeftToes  -1.65132 1.87998e-006 4.79886e-008
801
root  -31.884 34.718 9.31487 -171.302 53.143 -179.783
RightUpLeg  -31.2915 -20.3001 3.44081
RightLeg  51.23 -3.54956 -3.9228
RightFoot  8.57213 0.0887467 -0.622308
RightToes  -30.2672 -0.145766 -0.253819
Spine  -0.613268 0.593899 -0.629942
Spine1  -1.19923 1.2334 -0.52468
HEad  -70.4748 3.79764 3.33388
LeftShoulder1  -1.94126e-019 -3.10601e-018 -2.51263e-017
LeftArm  -25.3575 20.3631 -73.576
LeftForeArm  24.7827 -45.1624 -9.53839
LeftHand  -0.540994 -0.504531 10.7632
RightShoulder  -4.96962e-017 0 -2.36833e-017
RightArm  -23.6575 -17.0283 70.8628
RightForeArm  68.4736 73.1075 28.8251
RightHand  -0.639641 0.0701384 -13.6392
LeftUpLeg  -11.9087 1.93398 -3.54784
LeftLeg  15.8325 15.5867 3.3088
LeftFoot  -2.73803 -0.0187812 -0.624316
LeftToes  -2.04105 1.87998e-006 4.79886e-008
802
root  -31.0159 34.6908 8.50869 -170.691 53.4633 -179.327
RightUpLeg  -32.4856 -20.5766 5.69292
RightLeg  41.6442 -2.57103 -2.03137
RightFoot  8.78263 0.068766 -0.344343
RightToes  -31.8722 -0.157023 -0.264765
Spine  -0.562861 -0.0133493 -0.50001
Spine1  -1.1233 0.00926847 -0.241268
HEad  -70.3149 5.14681 3.47534
LeftShoulder1  -1.94126e-019 -3.10601e-018 -2.51263e-017
LeftArm  -26.8265 21.2355 -76.6133
LeftForeArm  19.147 -33.7426 -6.38402
LeftHand  -0.45854 -1.66039 7.7253
RightShoulder  -4.96962e-017 0 -2.36833e-017
RightArm  -19.0198 -18.5586 73.6342
RightForeArm  58.7554 59.3328 13.6135
RightHand  -0.546911 1.73618 -9.07099
LeftUpLeg  -9.29648 1.68008 -3.4986
LeftLeg  14.0431 16.3889 2.95126
LeftFoot  -3.90405 -0.0398688 -1.00818
LeftToes  -1.18823 1.87998e-006 4.79886e-008
803
root  -30.1507 34.563 7.77865 -170.361 54.7913 -178.834
RightUpLeg  -32.0561 -18.682 7.33884
RightLeg  29.731 -2.39343 -1.17873
RightFoot  10.8301 0.0856406 -0.354357
RightToes  -34.3262 -0.174818 -0.280881
Spine  -0.374692 -0.0824095 -0.450592
Spine1  -0.781392 -0.114222 -0.177047
HEad  -70.0576 6.03536 4.05584
LeftShoulder1  -1.94126e-019 -3.10601e-018 -2.51263e-017
LeftArm  -30.518 22.8097 -79.4685
LeftForeArm  20.203 -25.3469 -4.37563
LeftHand  -0.466384 -1.88945 7.62444
RightShoulder  -4.96962e-017 0 -2.36833e-017
RightArm  -17.4979 -20.5142 75.8855
RightForeArm  57.5522 43.8483 7.0001
RightHand  -0.279247 4.18982 -3.65774
LeftUpLeg  -7.02653 2.67123 -3.44866
LeftLeg  13.5764 16.8295 2.88924
LeftFoot  -5.60261 -0.0842406 -1.55993
LeftToes  -0.551571 1.87998e-006 4.79886e-008
804
root  -29.4918 34.2825 7.1269 -171.565 58.7949 179.192
RightUpLeg  -31.9791 -12.1828 6.40569
RightLeg  17.6007 -2.53574 -0.62884
RightFoot  14.4949 0.137083 -0.527548
RightToes  -36.5092 -0.191215 -0.294566
Spine  -0.260209 0.9321 -0.905794
Spine1  -0.559676 1.86891 -1.07527
HEad  -70.8019 5.93595 4.46003
LeftShoulder1  -1.94126e-019 -3.10601e-018 -2.51263e-017
LeftArm  -34.7855 25.5339 -81.5754
LeftForeArm  18.022 -23.0681 -3.99824
LeftHand  -0.518762 -0.696977 10.0146
RightShoulder  -4.96962e-017 0 -2.36833e-017
RightArm  -20.6758 -24.6595 77.4378
RightForeArm  60.4374 33.9613 4.25449
RightHand  0.0014951 5.40186 -0.299668
LeftUpLeg  -5.94972 5.55015 -5.21126
LeftLeg  14.0508 17.7945 3.19861
LeftFoot  -7.69881 -0.16871 -2.3454
LeftToes  0.804644 1.87998e-006 4.79886e-008
